<?xml version="1.0" standalone="no"?>
<!DOCTYPE svg PUBLIC "-//W3C//DTD SVG 20010904//EN"
 "http://www.w3.org/TR/2001/REC-SVG-20010904/DTD/svg10.dtd">
<svg version="1.0" xmlns="http://www.w3.org/2000/svg"
 width="600.000000pt" height="600.000000pt" viewBox="0 0 500.000000 500.000000"
 preserveAspectRatio="xMidYMid meet">

<g transform="translate(0.000000,500.000000) scale(0.100000,-0.100000)"
fill="#FF0000" stroke="none">
<path d="M3104 4266 c-51 -24 -94 -68 -112 -117 -9 -23 -21 -28 -109 -47 -54
-12 -273 -60 -488 -107 -688 -152 -1138 -245 -1182 -245 l-43 0 0 46 c0 85
-19 135 -74 190 -58 57 -121 80 -190 68 -124 -20 -196 -111 -196 -247 l0 -56
-47 -6 c-163 -22 -276 -72 -378 -167 -262 -244 -268 -636 -16 -889 59 -60 95
-85 162 -118 47 -22 93 -41 102 -41 15 0 17 -65 19 -827 l3 -828 22 -42 c27
-51 82 -96 132 -112 52 -15 870 -15 926 0 56 16 129 91 145 148 7 29 10 94 8
180 -5 161 -23 217 -92 297 -75 86 -139 112 -343 140 -54 8 -124 63 -155 123
-27 51 -28 59 -28 202 l0 149 131 0 c154 0 195 10 253 62 53 46 79 104 79 178
0 69 -27 124 -96 197 -44 47 -48 54 -27 49 14 -3 111 -24 215 -45 229 -48
1235 -269 1253 -276 6 -2 12 -11 12 -18 0 -32 62 -99 113 -123 46 -21 66 -24
171 -24 65 0 136 5 157 11 50 16 105 61 132 112 21 40 22 55 25 313 l3 271 60
17 c216 65 358 290 321 510 -30 178 -154 322 -321 372 l-60 17 -3 271 c-3 258
-4 273 -25 313 -27 51 -82 96 -132 112 -21 6 -92 11 -157 11 -104 0 -125 -3
-170 -24z m313 -148 l23 -21 0 -967 c0 -963 0 -967 -21 -994 -20 -25 -23 -26
-135 -26 -109 0 -116 1 -139 25 l-25 24 0 964 c0 960 0 964 21 991 20 25 23
26 137 26 105 0 118 -2 139 -22z m-447 -993 c0 -465 -3 -845 -6 -845 -3 0
-290 63 -637 139 -348 77 -713 156 -812 177 -99 20 -183 42 -187 48 -4 6 -8
223 -8 481 0 259 4 475 8 481 4 7 77 26 162 44 176 36 905 195 1235 269 121
27 226 50 233 50 9 1 12 -174 12 -844z m-1975 760 c21 -20 25 -34 25 -80 l0
-55 -80 0 -80 0 0 59 c0 52 3 62 26 80 36 28 79 27 109 -4z m175 -760 l0 -465
-274 0 c-241 0 -282 2 -335 19 -168 52 -292 197 -323 377 -37 218 105 446 320
515 49 15 94 18 335 18 l277 1 0 -465z m2506 269 c49 -27 95 -78 126 -137 33
-61 33 -203 0 -264 -42 -80 -117 -146 -189 -168 l-23 -6 0 306 0 306 23 -6
c12 -4 41 -18 63 -31z m-2654 -1326 c3 -431 3 -433 27 -493 18 -44 42 -78 90
-126 74 -73 134 -102 236 -113 109 -12 147 -27 196 -76 25 -25 48 -56 51 -68
l6 -22 -464 0 -464 0 0 665 0 665 160 0 159 0 3 -432z m336 299 c147 -149 156
-167 106 -226 l-26 -31 -134 0 -134 0 0 195 0 195 28 0 c23 0 53 -25 160 -133z
m282 -1404 c0 -44 -5 -62 -22 -80 l-21 -23 -428 0 -428 0 -20 26 c-15 20 -21
41 -21 80 l0 54 470 0 470 0 0 -57z"/>
<path d="M550 3360 l0 -80 230 0 230 0 0 80 0 80 -230 0 -230 0 0 -80z"/>
<path d="M550 3045 l0 -75 230 0 230 0 0 75 0 75 -230 0 -230 0 0 -75z"/>
<path d="M4644 3823 l-62 -36 39 -71 c52 -98 92 -203 120 -316 20 -81 23 -121
23 -275 1 -165 -2 -189 -27 -287 -31 -119 -70 -221 -121 -314 -30 -54 -32 -62
-17 -71 9 -5 37 -22 63 -37 l46 -27 36 63 c127 228 191 531 167 788 -19 200
-78 396 -167 558 -19 34 -36 62 -37 62 -1 0 -30 -17 -63 -37z"/>
<path d="M4268 3589 c-32 -16 -58 -31 -58 -32 0 -2 13 -39 29 -83 82 -224 81
-496 -3 -705 -14 -36 -26 -70 -26 -75 0 -10 102 -64 119 -64 15 0 72 158 94
260 43 201 23 454 -53 648 -17 45 -35 82 -38 82 -4 -1 -33 -14 -64 -31z"/>
</g>
</svg>
