<?xml version='1.0' encoding='utf-8'?>
<!DOCTYPE svg PUBLIC '-//W3C//DTD SVG 1.1//EN' 'http://www.w3.org/Graphics/SVG/1.1/DTD/svg11.dtd'>
<!-- Uploaded to: SVG Repo, www.svgrepo.com, Generator: SVG Repo Mixer Tools -->
<svg fill="#f5a201" height="800px" width="800px" version="1.1" xmlns="http://www.w3.org/2000/svg" viewBox="0 0 512 512"
  xmlns:xlink="http://www.w3.org/1999/xlink" enable-background="new 0 0 512 512">
  <g>
    <g>
      <g>
        <path
          d="m256,501c-118.1,0-214.1-96-214.1-214.1 0-79.3 43.5-151.7 113.6-189 9.9-5.3 22.3-1.5 27.6,8.4 5.3,10 1.5,22.3-8.4,27.6-56.7,30.2-92,88.8-92,153 0,95.5 77.7,173.3 173.3,173.3s173.3-77.7 173.3-173.3c0-64.1-35.2-122.7-92-153-9.9-5.3-13.7-17.7-8.4-27.6 5.3-9.9 17.6-13.7 27.6-8.4 70.1,37.3 113.6,109.8 113.6,189 0,118.1-96,214.1-214.1,214.1z" />
      </g>
      <g>
        <path
          d="m256,318.7c-11.3,0-20.4-9.1-20.4-20.4v-266.9c0-11.3 9.1-20.4 20.4-20.4 11.3,0 20.4,9.1 20.4,20.4v266.8c0,11.3-9.1,20.5-20.4,20.5z" />
      </g>
    </g>
  </g>
</svg>