<?xml version="1.0" standalone="no"?>
<!DOCTYPE svg PUBLIC "-//W3C//DTD SVG 20010904//EN"
 "http://www.w3.org/TR/2001/REC-SVG-20010904/DTD/svg10.dtd">
<svg version="1.0" xmlns="http://www.w3.org/2000/svg"
 width="930.000000pt" height="552.000000pt" viewBox="0 0 930.000000 552.000000"
 preserveAspectRatio="xMidYMid meet">

<g transform="translate(0.000000,552.000000) scale(0.100000,-0.100000)"
fill="#000000" stroke="none">
<path d="M0 4102 c0 -1389 0 -1419 19 -1436 11 -10 35 -25 53 -34 41 -21 43
-46 5 -50 -23 -3 -30 2 -42 32 -8 19 -19 37 -25 41 -7 4 -10 -286 -10 -889 l0
-895 43 42 c77 74 84 74 20 1 l-63 -72 0 -126 c0 -69 4 -126 8 -126 10 0 82
178 82 202 0 8 9 26 20 39 l19 24 1 -25 c0 -15 -4 -30 -10 -36 -12 -12 -90
-193 -90 -210 0 -13 63 -64 79 -64 16 0 13 -16 -4 -30 -8 -7 -15 -18 -15 -25
0 -8 -20 -37 -45 -66 l-45 -53 0 -173 0 -173 4650 0 4650 0 0 2111 0 2111 -25
20 c-14 11 -25 30 -25 43 0 23 24 40 41 29 5 -3 9 239 9 600 l0 606 -449 0
-450 0 41 -72 c23 -40 50 -80 61 -89 15 -12 21 -30 22 -70 1 -30 6 -63 10 -73
6 -13 5 -17 -3 -12 -6 4 -17 25 -23 47 -15 49 -57 71 -184 98 -97 21 -82 27
27 11 41 -6 76 -6 90 -1 13 6 16 10 8 10 -18 1 -63 68 -55 82 4 5 1 23 -7 39
l-13 30 -605 0 c-333 0 -622 -3 -642 -6 -23 -4 -38 -12 -38 -20 0 -18 -3 -18
-42 6 -33 20 -53 20 -3540 20 l-3508 0 0 -1418z m7485 1378 c15 -7 10 -9 -22
-9 -24 -1 -43 4 -43 9 0 12 37 12 65 0z m329 -42 c10 -6 15 -13 10 -17 -5 -3
-14 -15 -20 -26 -25 -45 -116 -21 -107 29 3 14 13 27 22 29 20 6 70 -2 95 -15z
m391 -58 c16 -7 14 -9 -15 -9 -19 0 -42 4 -50 9 -11 7 -8 10 15 9 17 0 39 -4
50 -9z m-814 -40 c39 -22 11 -69 -42 -70 -15 0 -38 9 -52 20 -14 11 -30 20
-36 20 -12 0 -15 23 -4 33 10 11 112 8 134 -3z m-176 -10 c22 -8 24 -13 15
-30 -13 -24 -52 -26 -70 -5 -10 12 -10 18 0 30 15 18 20 18 55 5z m987 -27
c25 -22 23 -47 -7 -63 -21 -11 -28 -10 -50 4 -33 21 -41 42 -25 61 17 20 59
19 82 -2z m308 -83 c11 -22 24 -40 29 -40 14 0 31 -52 35 -110 2 -30 7 -64 12
-75 4 -11 -4 -4 -17 15 -14 19 -38 41 -54 49 -55 27 -72 71 -34 92 16 8 20 18
17 42 -3 18 -8 40 -13 50 -15 34 5 16 25 -23z m281 -652 l34 -31 -29 -8 c-40
-11 -66 5 -66 41 0 39 19 39 61 -2z m-83 -141 c5 -39 -23 -70 -49 -56 -26 13
-26 76 -1 82 33 9 47 2 50 -26z m32 -624 c53 -49 60 -61 60 -94 0 -25 -8 -47
-23 -65 -23 -26 -24 -27 -59 -10 -19 9 -41 28 -48 41 -7 14 -17 25 -22 25 -10
0 -11 144 -1 153 15 16 36 4 93 -50z m234 -15 c26 -36 21 -58 -14 -58 -33 0
-67 39 -56 65 8 23 53 18 70 -7z m-8018 -1053 c4 -8 0 -22 -7 -31 -11 -13 -14
-13 -27 0 -17 17 -9 46 13 46 9 0 18 -7 21 -15z m-236 -369 c0 -13 -7 -29 -15
-36 -13 -10 -19 -10 -35 5 -34 31 -23 52 28 54 17 1 22 -5 22 -23z m-459 -5
c20 -16 22 -23 13 -38 -18 -29 -57 -23 -68 10 -8 22 -7 30 4 37 21 13 25 13
51 -9z m-23 -101 c7 -11 11 -20 9 -20 -2 0 -12 9 -22 20 -10 11 -14 20 -9 20
5 0 15 -9 22 -20z m543 -325 c16 -13 36 -22 44 -19 7 3 19 -4 25 -17 11 -19 9
-25 -11 -41 -13 -10 -32 -23 -42 -29 -17 -10 -18 -9 -2 15 13 19 14 29 5 45
-6 12 -15 21 -20 21 -11 0 -40 29 -40 41 0 14 10 11 41 -16z m-40 -178 c-16
-24 -37 -50 -47 -58 -16 -13 -16 -11 1 16 19 30 65 85 72 85 2 0 -9 -19 -26
-43z m-79 -106 c-4 -12 -22 -38 -39 -59 -71 -83 -140 -170 -177 -225 -39 -59
-53 -73 -62 -64 -10 10 32 74 70 107 20 18 46 51 57 72 11 22 44 66 74 98 30
33 57 71 61 85 4 16 10 23 16 17 5 -5 5 -18 0 -31z m-132 -105 c0 -16 -18 -31
-27 -22 -8 8 5 36 17 36 5 0 10 -6 10 -14z m127 -206 c0 -34 7 -68 14 -78 13
-16 12 -16 -6 0 -16 13 -30 15 -72 8 -29 -5 -57 -12 -63 -15 -5 -3 -10 -4 -10
-1 0 3 18 15 39 26 30 15 46 32 63 70 13 27 25 50 28 50 3 0 6 -27 7 -60z
m-370 -178 c-19 -21 -22 -57 -7 -67 15 -9 12 -25 -4 -19 -10 4 -16 -3 -19 -23
-4 -27 -4 -28 -12 -5 -6 18 -13 23 -31 19 -13 -2 -24 -1 -24 3 0 16 32 70 42
70 5 0 21 9 35 20 32 25 41 26 20 2z m183 -106 c0 -2 -7 -9 -15 -16 -13 -11
-14 -10 -9 4 5 14 24 23 24 12z m-40 -66 c0 -5 -7 -10 -16 -10 -8 0 -12 5 -9
10 3 6 10 10 16 10 5 0 9 -4 9 -10z m510 -56 c17 -30 9 -39 -19 -22 -23 14
-34 35 -26 48 9 14 31 1 45 -26z m-620 -40 c0 -16 12 -18 26 -4 7 7 7 -4 0
-34 -6 -25 -12 -43 -15 -40 -2 2 -15 -6 -28 -18 -13 -12 -23 -17 -23 -11 0 6
-9 13 -20 16 -31 8 -25 43 10 59 21 9 30 20 30 36 0 13 4 20 10 17 6 -3 10
-13 10 -21z m290 -36 c0 -19 -2 -20 -10 -8 -13 19 -13 30 0 30 6 0 10 -10 10
-22z m819 -516 c10 -18 -2 -42 -20 -42 -13 0 -39 31 -39 46 0 21 47 17 59 -4z
m-846 -140 c26 -28 7 -40 -60 -38 -63 1 -91 16 -30 16 21 0 36 7 45 20 15 25
24 25 45 2z"/>
<path d="M8421 5433 c7 -12 15 -20 18 -17 3 2 -3 12 -13 22 -17 16 -18 16 -5
-5z"/>
<path d="M7 544 c-4 -4 -7 -17 -7 -30 0 -20 2 -21 25 -11 14 7 24 19 23 27 -3
16 -30 25 -41 14z"/>
<path d="M0 388 c0 -19 2 -20 10 -8 13 19 13 30 0 30 -5 0 -10 -10 -10 -22z"/>
</g>
</svg>
